<?xml version="1.0" standalone="no"?>
<!DOCTYPE svg PUBLIC "-//W3C//DTD SVG 20010904//EN"
 "http://www.w3.org/TR/2001/REC-SVG-20010904/DTD/svg10.dtd">
<svg version="1.0" xmlns="http://www.w3.org/2000/svg"
 width="497.000000pt" height="497.000000pt" viewBox="0 0 497.000000 497.000000"
 preserveAspectRatio="xMidYMid meet">
<metadata>
Created by potrace 1.11, written by Peter Selinger 2001-2013
</metadata>
<g transform="translate(0.000000,497.000000) scale(0.100000,-0.100000)"
fill="#000000" stroke="none">
<path d="M2360 4893 c-14 -2 -74 -10 -135 -18 -271 -37 -480 -100 -720 -214
-560 -268 -1001 -750 -1217 -1331 -39 -106 -102 -331 -113 -405 -3 -22 -8 -53
-11 -70 -30 -164 -35 -570 -9 -665 2 -8 6 -33 9 -55 14 -100 20 -127 48 -240
28 -111 46 -169 69 -220 5 -11 16 -42 25 -70 23 -71 122 -268 190 -377 510
-826 1469 -1265 2429 -1113 295 47 652 177 862 314 34 23 65 41 69 41 25 0
334 253 407 333 15 16 52 56 82 88 80 87 193 240 267 364 62 103 168 314 168
334 0 4 13 39 28 77 30 73 98 314 106 374 2 19 9 67 16 105 18 112 22 169 22
350 0 173 -2 203 -22 335 -6 41 -13 86 -15 100 -2 14 -11 54 -20 90 -9 36 -18
76 -21 90 -3 14 -25 85 -50 158 -119 349 -307 652 -569 917 -75 76 -161 153
-211 191 -22 16 -43 32 -49 37 -66 50 -115 83 -181 123 -43 26 -90 54 -104 63
-14 8 -77 40 -140 69 -103 48 -161 71 -295 117 -44 15 -238 65 -270 70 -11 1
-72 10 -135 20 -105 15 -447 28 -510 18z m320 -307 c69 -4 141 -11 160 -15 19
-5 55 -12 80 -14 25 -3 90 -17 145 -31 670 -170 1219 -667 1456 -1316 57 -157
99 -337 117 -500 15 -135 6 -428 -17 -559 -12 -69 -24 -128 -26 -131 -2 -4 -7
-22 -10 -41 -11 -67 -98 -306 -147 -404 -90 -180 -214 -364 -322 -480 -26 -27
-57 -61 -70 -75 -12 -14 -54 -53 -92 -87 -285 -255 -624 -426 -999 -503 -44
-9 -104 -17 -210 -30 -72 -8 -438 -6 -452 3 -4 3 -26 8 -48 11 -22 3 -58 9
-80 12 -79 12 -240 56 -346 95 -291 107 -535 264 -759 489 -106 106 -243 272
-284 345 -9 17 -28 48 -41 70 -117 188 -232 504 -261 715 -3 25 -8 54 -11 65
-11 52 -19 223 -17 345 8 364 112 717 307 1039 29 47 55 88 58 91 3 3 30 39
61 80 30 41 70 91 87 110 98 105 125 131 187 187 197 176 416 308 668 402 105
39 317 96 396 106 25 3 56 7 70 10 14 3 77 8 140 11 63 4 117 8 119 10 2 2 7
2 10 0 3 -2 62 -7 131 -10z"/>
<path d="M2607 4294 c-1 -1 -38 -4 -82 -7 -410 -27 -792 -190 -1055 -449 -36
-35 -74 -75 -85 -88 -52 -64 -77 -100 -73 -109 1 -5 111 -93 242 -195 l239
-185 91 93 c100 101 148 138 252 189 142 71 233 91 414 91 155 1 261 -32 343
-104 119 -107 139 -280 52 -450 -38 -74 -183 -215 -385 -375 -112 -89 -135
-110 -251 -225 -115 -114 -173 -191 -219 -293 -29 -64 -70 -197 -70 -227 0
-13 44 -15 355 -15 l356 0 5 25 c14 66 67 168 117 227 61 71 184 181 332 296
256 200 361 300 445 422 108 160 152 303 155 512 5 286 -90 486 -311 649 -116
86 -327 173 -458 190 -21 2 -42 6 -45 9 -15 8 -356 26 -364 19z"/>
<path d="M2123 1575 c-217 -49 -369 -256 -356 -485 13 -235 190 -399 431 -401
133 -1 232 40 331 139 100 101 142 203 142 347 0 183 -99 324 -273 389 -64 23
-197 29 -275 11z"/>
</g>
</svg>
